<?xml version="1.0" encoding="UTF-8"?>
<!DOCTYPE svg PUBLIC "-//W3C//DTD SVG 1.1//EN" "http://www.w3.org/Graphics/SVG/1.1/DTD/svg11.dtd">
<svg xmlns="http://www.w3.org/2000/svg" version="1.1" width="69px" height="67px" style="shape-rendering:geometricPrecision; text-rendering:geometricPrecision; image-rendering:optimizeQuality; fill-rule:evenodd; clip-rule:evenodd" xmlns:xlink="http://www.w3.org/1999/xlink">
<g><path style="opacity:0.94" fill="#e38aab" d="M 24.5,-0.5 C 30.1667,-0.5 35.8333,-0.5 41.5,-0.5C 61.186,6.51306 69.3526,20.5131 66,41.5C 62.3171,54.3486 54.1504,62.6819 41.5,66.5C 35.8333,66.5 30.1667,66.5 24.5,66.5C 19.7871,64.9753 15.4538,62.6419 11.5,59.5C 18.2048,57.6257 24.8715,55.6257 31.5,53.5C 36.5488,53.4054 41.2155,52.072 45.5,49.5C 52.8437,47.3246 59.0103,43.3246 64,37.5C 65.5809,31.9384 64.0809,27.4384 59.5,24C 55.4235,21.2951 51.0901,19.1284 46.5,17.5C 41.7991,13.9884 36.4658,12.3217 30.5,12.5C 24.1345,10.0881 17.4679,8.42148 10.5,7.5C 14.5796,3.79389 19.2463,1.12723 24.5,-0.5 Z"/></g>
<g><path style="opacity:0.918" fill="#e386a9" d="M 10.5,7.5 C 17.4679,8.42148 24.1345,10.0881 30.5,12.5C 29.2921,13.2341 27.9587,13.5674 26.5,13.5C 20.8738,11.677 15.2072,10.0103 9.5,8.5C 9.5,7.83333 9.83333,7.5 10.5,7.5 Z"/></g>
<g><path style="opacity:0.92" fill="#e380a5" d="M 9.5,8.5 C 15.2072,10.0103 20.8738,11.677 26.5,13.5C 25.1667,14.1667 23.8333,14.8333 22.5,15.5C 17.7403,13.3866 12.7403,11.7199 7.5,10.5C 7.83333,9.5 8.5,8.83333 9.5,8.5 Z"/></g>
<g><path style="opacity:0.94" fill="#e479a1" d="M 7.5,10.5 C 12.7403,11.7199 17.7403,13.3866 22.5,15.5C 22.1583,16.3382 21.4916,16.6716 20.5,16.5C 15.8333,15.1667 11.1667,13.8333 6.5,12.5C 6.83333,11.8333 7.16667,11.1667 7.5,10.5 Z"/></g>
<g><path style="opacity:0.902" fill="#e4739d" d="M 6.5,12.5 C 11.1667,13.8333 15.8333,15.1667 20.5,16.5C 20.1667,17.5 19.5,18.1667 18.5,18.5C 14.0971,16.5922 9.43046,15.2589 4.5,14.5C 4.83333,13.5 5.5,12.8333 6.5,12.5 Z"/></g>
<g><path style="opacity:0.941" fill="#e56d9a" d="M 4.5,14.5 C 9.43046,15.2589 14.0971,16.5922 18.5,18.5C 18.1667,19.5 17.5,20.1667 16.5,20.5C 12.3027,18.7679 7.96933,17.4345 3.5,16.5C 3.83333,15.8333 4.16667,15.1667 4.5,14.5 Z"/></g>
<g><path style="opacity:0.948" fill="#e56896" d="M 3.5,16.5 C 7.96933,17.4345 12.3027,18.7679 16.5,20.5C 16.6716,21.4916 16.3382,22.1583 15.5,22.5C 11.9155,20.1939 7.91546,18.8606 3.5,18.5C 3.16667,18.5 2.83333,18.5 2.5,18.5C 2.83333,17.8333 3.16667,17.1667 3.5,16.5 Z"/></g>
<g><path style="opacity:0.954" fill="#e387a9" d="M 46.5,17.5 C 51.0901,19.1284 55.4235,21.2951 59.5,24C 64.0809,27.4384 65.5809,31.9384 64,37.5C 59.0103,43.3246 52.8437,47.3246 45.5,49.5C 46.8333,47.8333 48.1667,46.1667 49.5,44.5C 51.674,44.2503 53.3406,43.2503 54.5,41.5C 59.9396,38.6063 61.4396,34.273 59,28.5C 57.9609,27.2899 56.7942,26.2899 55.5,25.5C 54.1979,23.1782 52.1979,21.8449 49.5,21.5C 48.5,20.1667 47.5,18.8333 46.5,17.5 Z"/></g>
<g><path style="opacity:0.916" fill="#e56091" d="M 2.5,18.5 C 2.83333,18.5 3.16667,18.5 3.5,18.5C 7.42866,20.1485 11.4287,21.8152 15.5,23.5C 15.0679,24.7095 14.4013,25.7095 13.5,26.5C 9.85151,24.0596 5.85151,22.3929 1.5,21.5C 1.55688,20.391 1.89022,19.391 2.5,18.5 Z"/></g>
<g><path style="opacity:0.965" fill="#e56494" d="M 3.5,18.5 C 7.91546,18.8606 11.9155,20.1939 15.5,22.5C 15.5,22.8333 15.5,23.1667 15.5,23.5C 11.4287,21.8152 7.42866,20.1485 3.5,18.5 Z"/></g>
<g><path style="opacity:0.918" fill="#e65a8e" d="M 1.5,21.5 C 5.85151,22.3929 9.85151,24.0596 13.5,26.5C 12.1667,30.8333 12.1667,35.1667 13.5,39.5C 9.77888,42.0272 5.77888,44.0272 1.5,45.5C 0.890217,44.609 0.556884,43.609 0.5,42.5C 15.1479,36.211 15.1479,29.8776 0.5,23.5C 0.32842,22.5084 0.661754,21.8417 1.5,21.5 Z"/></g>
<g><path style="opacity:0.799" fill="#e384a8" d="M 49.5,21.5 C 52.1979,21.8449 54.1979,23.1782 55.5,25.5C 53.9382,25.2671 52.6049,24.6005 51.5,23.5C 50.5,23.1667 49.8333,22.5 49.5,21.5 Z"/></g>
<g><path style="opacity:0.992" fill="#e6558b" d="M 0.5,23.5 C 15.1479,29.8776 15.1479,36.211 0.5,42.5C 0.5,41.8333 0.5,41.1667 0.5,40.5C 7.07672,35.5822 7.07672,30.5822 0.5,25.5C 0.5,24.8333 0.5,24.1667 0.5,23.5 Z"/></g>
<g><path style="opacity:0.903" fill="#e381a6" d="M 51.5,23.5 C 52.6049,24.6005 53.9382,25.2671 55.5,25.5C 57.0362,27.9163 58.0362,30.5829 58.5,33.5C 57.7068,36.4197 56.3735,39.0863 54.5,41.5C 53.3406,43.2503 51.674,44.2503 49.5,44.5C 53.9137,37.9199 54.5803,30.9199 51.5,23.5 Z"/></g>
<g><path style="opacity:1" fill="#e384a8" d="M 55.5,25.5 C 56.7942,26.2899 57.9609,27.2899 59,28.5C 61.4396,34.273 59.9396,38.6063 54.5,41.5C 56.3735,39.0863 57.7068,36.4197 58.5,33.5C 58.0362,30.5829 57.0362,27.9163 55.5,25.5 Z"/></g>
<g><path style="opacity:0.904" fill="#e65087" d="M -0.5,25.5 C -0.166667,25.5 0.166667,25.5 0.5,25.5C 7.07672,30.5822 7.07672,35.5822 0.5,40.5C 0.166667,40.5 -0.166667,40.5 -0.5,40.5C -0.5,35.5 -0.5,30.5 -0.5,25.5 Z"/></g>
<g><path style="opacity:0.924" fill="#e56091" d="M 13.5,39.5 C 14.4013,40.2905 15.0679,41.2905 15.5,42.5C 11.4067,44.7539 7.0734,46.4206 2.5,47.5C 2.16667,46.8333 1.83333,46.1667 1.5,45.5C 5.77888,44.0272 9.77888,42.0272 13.5,39.5 Z"/></g>
<g><path style="opacity:0.925" fill="#e56796" d="M 15.5,42.5 C 16.1098,43.391 16.4431,44.391 16.5,45.5C 12.5,47.1667 8.5,48.8333 4.5,50.5C 3.59872,49.7095 2.93205,48.7095 2.5,47.5C 7.0734,46.4206 11.4067,44.7539 15.5,42.5 Z"/></g>
<g><path style="opacity:0.958" fill="#e56d9a" d="M 16.5,45.5 C 17.5,45.8333 18.1667,46.5 18.5,47.5C 14.1291,49.0425 9.79576,50.7092 5.5,52.5C 4.66175,52.1583 4.32842,51.4916 4.5,50.5C 8.5,48.8333 12.5,47.1667 16.5,45.5 Z"/></g>
<g><path style="opacity:0.955" fill="#e4739d" d="M 18.5,47.5 C 19.5,47.8333 20.1667,48.5 20.5,49.5C 16.0223,51.123 11.3556,52.4563 6.5,53.5C 5.83333,53.5 5.5,53.1667 5.5,52.5C 9.79576,50.7092 14.1291,49.0425 18.5,47.5 Z"/></g>
<g><path style="opacity:0.937" fill="#e479a1" d="M 20.5,49.5 C 22.0269,49.427 23.0269,50.0937 23.5,51.5C 18.1457,52.8386 12.8123,54.1719 7.5,55.5C 7.16667,54.8333 6.83333,54.1667 6.5,53.5C 11.3556,52.4563 16.0223,51.123 20.5,49.5 Z"/></g>
<g><path style="opacity:0.93" fill="#e380a5" d="M 23.5,51.5 C 24.609,51.5569 25.609,51.8902 26.5,52.5C 21.0479,54.6164 15.3812,56.283 9.5,57.5C 8.5,57.1667 7.83333,56.5 7.5,55.5C 12.8123,54.1719 18.1457,52.8386 23.5,51.5 Z"/></g>
<g><path style="opacity:0.903" fill="#e386a9" d="M 26.5,52.5 C 28.2161,52.6287 29.8828,52.962 31.5,53.5C 24.8715,55.6257 18.2048,57.6257 11.5,59.5C 10.5,59.1667 9.83333,58.5 9.5,57.5C 15.3812,56.283 21.0479,54.6164 26.5,52.5 Z"/></g>
</svg>
